<svg xmlns="http://www.w3.org/2000/svg" version="1.1" xmlns:xlink="http://www.w3.org/1999/xlink" xmlns:svgjs="http://svgjs.dev/svgjs" width="1000" height="1000"><g clip-path="url(#SvgjsClipPath1176)"><rect width="1000" height="1000" fill="#ffffff"></rect><g transform="matrix(6.172839506172839,0,0,6.172839506172839,0,0)"><svg xmlns="http://www.w3.org/2000/svg" version="1.1" xmlns:xlink="http://www.w3.org/1999/xlink" xmlns:svgjs="http://svgjs.dev/svgjs" width="162" height="162"><svg width="162" height="162" viewBox="0 0 162 162" fill="none" xmlns="http://www.w3.org/2000/svg">
<path fill-rule="evenodd" clip-rule="evenodd" d="M152.184 99.3773C155.377 87.0478 155.323 74.1015 152.026 61.7992L124.69 69.1238C126.722 76.7053 126.755 84.6837 124.787 92.282L152.184 99.3773Z" fill="#F7B016"></path>
<path fill-rule="evenodd" clip-rule="evenodd" d="M151.912 61.1918C148.512 48.9175 141.992 37.7327 132.986 28.7268L112.975 48.7381C118.525 54.2882 122.543 61.1809 124.638 68.7452L151.912 61.1918Z" fill="#FFF300"></path>
<path fill-rule="evenodd" clip-rule="evenodd" d="M132.548 28.2469C123.467 19.3168 112.228 12.8905 99.9254 9.59415L92.6007 36.93C92.6007 36.93 92.6006 36.93 92.6006 36.93L80.8374 80.8307L80.8376 80.8306L80.8375 80.8309L132.548 28.2469ZM80.8376 80.8306L112.705 48.4251C107.108 42.9217 100.182 38.9615 92.6007 36.93L80.8376 80.8306Z" fill="#7DBD21"></path>
<path fill-rule="evenodd" clip-rule="evenodd" d="M99.3772 9.384C87.0477 6.19078 74.1013 6.24501 61.799 9.54141L69.1236 36.8773C69.1236 36.8773 69.1235 36.8773 69.1235 36.8773L80.8866 80.7781L80.8867 80.7778L80.8868 80.7781L99.3772 9.384ZM80.8867 80.7778L92.2816 36.7803C84.6834 34.8125 76.7051 34.8459 69.1236 36.8773L80.8867 80.7778Z" fill="#0B9C15"></path>
<path fill-rule="evenodd" clip-rule="evenodd" d="M61.192 9.65634C48.9178 13.0557 37.733 19.5758 28.7271 28.5818L48.7383 48.5931L80.8759 80.7306L80.8759 80.7305L80.876 80.7307L61.192 9.65634ZM80.8759 80.7305L68.7454 36.93C61.1811 39.0249 54.2884 43.043 48.7383 48.5931L80.8759 80.7305Z" fill="#177706"></path>
<path fill-rule="evenodd" clip-rule="evenodd" d="M28.2557 28.9873C19.3256 38.0684 12.8994 49.3073 9.60296 61.6097L36.9388 68.9343C38.9702 61.3528 42.9305 54.4266 48.4338 48.8302L28.2557 28.9873Z" fill="#1151B1"></path>
<path fill-rule="evenodd" clip-rule="evenodd" d="M36.7803 69.2861C34.8125 76.8843 34.8459 84.8627 36.8773 92.4442L9.54136 99.7689C6.24495 87.4665 6.19072 74.5202 9.38395 62.1907L36.7803 69.2861Z" fill="#1118B1"></path>
<path fill-rule="evenodd" clip-rule="evenodd" d="M36.9302 92.8231C39.0251 100.387 43.0432 107.28 48.5932 112.83L28.5818 132.841C19.5759 123.836 13.0558 112.651 9.65641 100.376L36.9302 92.8231ZM80.7307 80.6925L36.9302 92.8231C36.9301 92.823 36.9301 92.823 36.9301 92.823L80.7308 80.6925L80.7307 80.6925Z" fill="#662583"></path>
<path fill-rule="evenodd" clip-rule="evenodd" d="M48.8632 113.143C54.4596 118.646 61.3857 122.606 68.9673 124.638L61.6425 151.974C49.3402 148.677 38.1012 142.251 29.0202 133.321L48.8632 113.143ZM48.8632 113.143L80.7303 80.7371L68.9673 124.638L80.7304 80.7369L48.8632 113.143Z" fill="#951B80"></path>
<path fill-rule="evenodd" clip-rule="evenodd" d="M69.286 124.787C76.8842 126.755 84.8625 126.722 92.444 124.69L80.6809 80.7898L99.7687 152.026C87.4664 155.323 74.52 155.377 62.1905 152.184L69.286 124.787ZM69.286 124.787C69.2859 124.787 69.2858 124.787 69.2858 124.787L80.6808 80.7896L80.6809 80.7898L69.286 124.787Z" fill="#E71D73"></path>
<path fill-rule="evenodd" clip-rule="evenodd" d="M112.83 112.975C112.83 112.975 112.83 112.975 112.83 112.975L80.692 80.8372L80.6921 80.8374L112.83 112.975ZM92.8225 124.638C100.387 122.543 107.28 118.525 112.83 112.975L132.841 132.986C123.835 141.992 112.65 148.512 100.376 151.912L92.8225 124.638Z" fill="#FC4003"></path>
<path fill-rule="evenodd" clip-rule="evenodd" d="M133.312 132.581C142.242 123.5 148.668 112.261 151.965 99.9585L80.728 80.8707L80.728 80.8707L80.7278 80.8706L113.134 112.738L133.312 132.581ZM80.728 80.8707L113.134 112.738C118.637 107.141 122.597 100.215 124.629 92.6338L80.728 80.8707Z" fill="#F07704"></path>
<path fill-rule="evenodd" clip-rule="evenodd" d="M74.3316 67.1201C75.3553 67.1201 76.3396 67.2322 77.3239 67.4191C72.7567 69.8483 71.1424 72.9129 71.1424 72.9129C67.8745 74.1089 65.5515 77.1361 65.5515 80.6865C65.5515 85.2834 69.4888 89.0207 74.3316 89.0207C79.1744 89.0207 83.1117 85.2834 83.1117 80.6865C83.1117 79.0421 82.5998 77.5098 81.7337 76.2018C84.726 74.4452 87.5214 75.6038 87.5608 75.6412C88.2301 77.2108 88.5845 78.8926 88.5845 80.6865C88.5845 87.3389 83.5448 92.8701 76.8514 94.0287V97.2427H80.1981C81.7336 97.2427 82.9542 98.4387 82.9542 99.8588C82.9542 101.279 81.6943 102.475 80.1981 102.475H76.8514V104.717C76.8514 106.175 75.5915 107.333 74.0954 107.333C72.5992 107.333 71.3393 106.138 71.3393 104.717V102.475H67.9926C66.4571 102.475 65.2365 101.279 65.2365 99.8588C65.2365 98.4387 66.4965 97.2427 67.9926 97.2427H71.3393V93.9539C64.8822 92.6459 60 87.2268 60 80.6865C60.0394 73.2119 66.4177 67.1201 74.3316 67.1201Z" fill="#0066FF"></path>
<path fill-rule="evenodd" clip-rule="evenodd" d="M85.2774 67.8302C88.3879 67.8302 91.3014 68.7645 93.6638 70.3342L96.6167 67.4938H94.3725C93.1126 67.4938 92.0889 66.5221 92.0889 65.3262V64.6161C92.0889 63.1586 93.3488 62 94.845 62H104.452C105.633 62 106.617 62.9343 106.617 64.0555V73.025C106.617 74.4452 105.397 75.6411 103.861 75.6411H103.822C102.286 75.6411 101.066 74.4452 101.066 73.025V71.0443L97.5223 74.221C98.9791 76.3886 99.8453 78.93 99.8453 81.6956C99.8453 89.357 93.3094 95.5236 85.2774 95.5236C83.5844 95.5236 81.9701 95.2619 80.4346 94.7387C84.3719 93.2064 86.8523 90.1418 86.8523 90.1418C91.1046 89.4318 94.3331 85.9187 94.3331 81.6956C94.3331 76.9492 90.2777 73.0998 85.2774 73.0998C80.2771 73.0998 76.2217 76.9492 76.2217 81.6956C76.2217 83.5642 76.8517 85.2834 77.9148 86.6662C77.3635 87.0773 76.6155 87.4136 75.6312 87.5257C74.0956 87.7126 72.8357 87.5257 71.9695 87.3389C71.1427 85.6197 70.7096 83.7137 70.7096 81.6956C70.6702 74.0341 77.2061 67.8302 85.2774 67.8302Z" fill="#E5342A"></path>
</svg></svg></g></g><defs><clipPath id="SvgjsClipPath1176"><rect width="1000" height="1000" x="0" y="0" rx="500" ry="500"></rect></clipPath></defs></svg>