<svg width="20" height="12" viewBox="0 0 20 12" fill="none" xmlns="http://www.w3.org/2000/svg">
<path d="M2.59704 8.19459H3.17413V7.61376H2.59704V8.19459Z" fill="#0066FF"/>
<path d="M10.7147 10.8277H11.311V10.0939C11.311 9.25172 11.3168 9.21493 11.4572 9.07166C11.6419 8.88773 12.0074 8.91096 12.1093 9.11425C12.1459 9.18783 12.1478 9.23623 12.1536 10.0087L12.1593 10.8277H12.7557L12.7441 9.01745L12.6883 8.89741C12.5883 8.67863 12.3844 8.53729 12.1074 8.49857C11.8362 8.45791 11.538 8.54697 11.388 8.70961L11.311 8.79479V7.61376H10.7147V10.8277Z" fill="#0066FF"/>
<path d="M14.0041 8.48307C13.3789 8.576 13.0096 9.0581 13.048 9.7338C13.0673 10.0746 13.1615 10.2953 13.377 10.5083C13.5828 10.7135 13.7906 10.7987 14.1291 10.82C14.8543 10.8645 15.3487 10.394 15.3506 9.66023C15.3506 9.29624 15.2429 8.99421 15.0332 8.78511C14.9005 8.65151 14.7043 8.54309 14.5273 8.5063C14.385 8.47726 14.1291 8.46564 14.0041 8.48307ZM14.4696 9.02325C14.6543 9.11425 14.7408 9.30786 14.7408 9.637C14.7428 10.1055 14.5773 10.3243 14.2176 10.3243C14.0329 10.3243 13.9445 10.2953 13.8406 10.2043C13.7213 10.0997 13.6752 9.96614 13.6617 9.70476C13.6444 9.3156 13.7521 9.08714 13.9964 8.99614C14.1118 8.95355 14.3561 8.9671 14.4696 9.02325Z" fill="#0066FF"/>
<path d="M0.0384725 8.58568C0.0596324 8.64182 0.253919 9.16264 0.469365 9.74348L0.861785 10.7987L1.1561 10.8045L1.45234 10.8083L1.88131 9.66022C2.11599 9.02711 2.30835 8.50436 2.30835 8.49855C2.30835 8.49081 2.17947 8.485 2.02173 8.485H1.73511L1.6447 8.73088C1.24459 9.83254 1.16379 10.0494 1.15418 10.0416C1.1484 10.0358 1.01952 9.68539 0.865632 9.26332L0.584782 8.49468L0 8.48306L0.0384725 8.58568Z" fill="#0066FF"/>
<path d="M2.59704 10.8083H3.17413V8.485H2.59704V10.8083Z" fill="#0066FF"/>
<path d="M3.46606 9.65057L3.47183 10.818L4.05853 10.8297V10.123C4.05853 9.68736 4.06623 9.37951 4.07969 9.31756C4.10662 9.18784 4.20281 9.05037 4.29899 9.00003C4.349 8.97293 4.4221 8.95744 4.51059 8.95357C4.67602 8.94582 4.79528 8.9981 4.85684 9.10458C4.89339 9.16847 4.89531 9.21107 4.90108 9.99907L4.90685 10.8277H5.50318L5.49741 9.92163C5.48971 8.88967 5.49356 8.91291 5.3262 8.72898C5.04535 8.4192 4.41248 8.40758 4.13548 8.70961L4.05853 8.7948V8.48502H3.46221L3.46606 9.65057Z" fill="#0066FF"/>
<path d="M6.62667 8.50438C6.20732 8.56828 5.98034 8.75608 5.90724 9.10071C5.87261 9.27109 5.85338 9.25947 6.16116 9.25947H6.43624L6.47663 9.1646C6.52857 9.04069 6.63629 8.96518 6.78056 8.95357C6.93061 8.94195 7.00371 8.96131 7.09412 9.03875C7.23262 9.15686 7.21915 9.304 7.06718 9.36789C7.03064 9.38338 6.88252 9.41436 6.73632 9.43566C6.1323 9.52472 5.93994 9.63314 5.84761 9.93324C5.7091 10.3844 5.9284 10.7329 6.39584 10.8084C6.66322 10.851 7.00948 10.7774 7.1499 10.6477C7.20376 10.5993 7.20953 10.6051 7.24031 10.7251L7.26339 10.818L7.8097 10.8297V10.0475C7.8097 9.57119 7.80201 9.22269 7.78854 9.15105C7.74238 8.89355 7.59041 8.68832 7.37496 8.58764C7.18645 8.50051 6.87675 8.46566 6.62667 8.50438ZM7.1903 9.89258C7.17683 10.1733 7.11912 10.2663 6.89983 10.3631C6.70747 10.4482 6.50549 10.427 6.43239 10.3127C6.38814 10.2469 6.38622 10.0843 6.43046 10.0029C6.47663 9.91194 6.54203 9.87903 6.81904 9.81127C6.95754 9.77642 7.08834 9.73963 7.1095 9.72801C7.19222 9.67767 7.19991 9.69316 7.1903 9.89258Z" fill="#0066FF"/>
<path d="M8.11765 11.4086H8.69474V10.4754L8.79669 10.5625C9.00252 10.7367 9.18719 10.8084 9.43918 10.8084C9.72965 10.8084 9.92971 10.7309 10.1144 10.5451C10.3221 10.336 10.4241 10.0514 10.426 9.68156C10.426 9.17624 10.2433 8.81224 9.89701 8.62638C9.71041 8.52764 9.58153 8.49859 9.36993 8.50827C9.2122 8.51408 9.16603 8.52376 9.05446 8.57604C8.98328 8.61089 8.87364 8.67865 8.81016 8.72706L8.69666 8.81612L8.68512 8.49472L8.11765 8.4831V11.4086ZM9.4488 9.03877C9.63155 9.10073 9.74312 9.26917 9.77197 9.53248C9.82199 9.97779 9.62578 10.3031 9.28337 10.3379C9.07562 10.3592 8.87748 10.2411 8.77746 10.0378C8.73129 9.94294 8.72359 9.90034 8.7159 9.72029C8.71013 9.54797 8.71782 9.48795 8.75053 9.37566C8.80054 9.20915 8.90634 9.0833 9.02753 9.03877C9.13525 9.00198 9.34108 9.00005 9.4488 9.03877Z" fill="#0066FF"/>
<path d="M15.6582 10.8277H16.2353V10.1346C16.2353 9.37563 16.2488 9.25946 16.3392 9.12587C16.3757 9.07553 16.4315 9.02906 16.4988 8.99615C16.5893 8.94968 16.6181 8.94581 16.747 8.95356C16.9086 8.96517 16.9701 8.99615 17.0336 9.10651C17.0702 9.16846 17.0721 9.213 17.0779 9.99906L17.0836 10.8277H17.68L17.6684 8.99809L17.6165 8.88773C17.5164 8.67282 17.3202 8.54116 17.0432 8.5005C16.7585 8.45791 16.4488 8.55084 16.3026 8.72122L16.2353 8.80254V8.48501H15.6582V10.8277Z" fill="#0066FF"/>
<path d="M18.7458 8.50436C18.3591 8.58374 18.0898 8.85673 17.9937 9.27106C17.9552 9.4395 17.9648 9.90611 18.0129 10.0823C18.1418 10.5605 18.4861 10.8064 19.0247 10.8083C19.4325 10.8083 19.7365 10.6283 19.9096 10.2817L19.9885 10.121L19.6941 10.1152C19.4999 10.1113 19.3979 10.1171 19.3941 10.1307C19.3767 10.183 19.2786 10.274 19.2075 10.3069C19.1055 10.3553 18.9247 10.3534 18.8227 10.3069C18.6765 10.2391 18.565 10.0746 18.5342 9.88288L18.5207 9.80156H20V9.59246C19.9596 8.86641 19.6095 8.47919 18.9959 8.48693C18.9016 8.48887 18.7881 8.49661 18.7458 8.50436ZM19.1094 8.97096C19.2209 9.00194 19.3614 9.15102 19.3979 9.28074C19.4152 9.33689 19.4287 9.39497 19.4287 9.40853C19.4287 9.42789 19.3402 9.4337 18.9862 9.4337C18.7439 9.4337 18.5438 9.43176 18.5438 9.42789C18.5438 9.42402 18.5573 9.37561 18.5746 9.31753C18.6573 9.03486 18.8612 8.90126 19.1094 8.97096Z" fill="#0066FF"/>
<path d="M7.3507 0.0356424C7.14872 0.0898537 7.02946 0.159554 6.86595 0.32606C6.69859 0.492567 6.61396 0.641648 6.55817 0.860429C6.40428 1.4645 6.74284 2.09955 7.29877 2.25056C7.36802 2.26992 7.55846 2.28929 7.77967 2.3009C8.20672 2.3222 8.4087 2.35318 8.68955 2.44611C9.21278 2.61649 9.61866 2.9224 9.80525 3.28252C10.0072 3.67555 10.0265 4.11117 9.85527 4.45193C9.75908 4.64554 9.64367 4.71718 9.32627 4.78107C9.07235 4.83141 8.98771 4.87207 8.86652 5.00373C8.56451 5.33867 8.67031 5.88079 9.0762 6.07827C9.14352 6.11312 9.20123 6.1228 9.31857 6.1228C9.45515 6.12474 9.48785 6.11699 9.60135 6.06085C9.74754 5.98921 9.83218 5.90208 9.90336 5.7472C9.95145 5.64458 9.95337 5.63103 9.9476 5.32318C9.94183 4.95726 9.96299 4.86239 10.0746 4.73654C10.1996 4.59714 10.3246 4.55455 10.7228 4.51776C11.0672 4.48485 11.1749 4.44612 11.3365 4.29317C11.4961 4.14215 11.5577 4.01243 11.6365 3.65619C11.7462 3.1586 11.8597 2.91078 12.0886 2.67651C12.3406 2.41901 12.733 2.28154 13.2178 2.28154C13.3909 2.28154 13.5294 2.25056 13.6602 2.18086C14.2315 1.87689 14.3508 1.02887 13.8891 0.562267C13.5255 0.19634 12.9523 0.192468 12.5772 0.552586C12.3868 0.734582 12.3021 0.943683 12.2713 1.29993C12.2348 1.72587 12.1425 2.00661 11.9424 2.30284C11.8481 2.44418 11.6154 2.65908 11.4615 2.75202C11.071 2.98242 10.5324 3.02114 10.1034 2.84882C9.53787 2.62036 9.03965 1.96208 8.72417 1.02694C8.57605 0.5855 8.52027 0.479014 8.35676 0.31638C8.08361 0.0414508 7.71619 -0.0611636 7.3507 0.0356424Z" fill="#0066FF"/>
</svg>
