<svg width="41" height="40" viewBox="0 0 41 40" fill="none" xmlns="http://www.w3.org/2000/svg">
<mask id="mask0_491_2381" style="mask-type:alpha" maskUnits="userSpaceOnUse" x="0" y="0" width="41" height="40">
<rect x="0.873779" width="39.5789" height="40" fill="#D9D9D9"/>
</mask>
<g mask="url(#mask0_491_2381)">
<path d="M20.6633 23.667C19.4265 23.667 18.3751 23.2295 17.5094 22.3545C16.6436 21.4795 16.2107 20.417 16.2107 19.167C16.2107 17.917 16.6436 16.8545 17.5094 15.9795C18.3751 15.1045 19.4265 14.667 20.6633 14.667C21.9001 14.667 22.9515 15.1045 23.8172 15.9795C24.683 16.8545 25.1159 17.917 25.1159 19.167C25.1159 20.417 24.683 21.4795 23.8172 22.3545C22.9515 23.2295 21.9001 23.667 20.6633 23.667ZM20.6633 31.667C16.6504 31.667 12.9949 30.535 9.69663 28.2712C6.39839 26.0073 4.00716 22.9725 2.52295 19.167C4.00716 15.3614 6.39839 12.3267 9.69663 10.0628C12.9949 7.79894 16.6504 6.66699 20.6633 6.66699C24.5387 6.66699 28.0775 7.72255 31.2795 9.83366C34.4816 11.9448 36.8797 14.7781 38.4738 18.3337H34.7221C33.2928 15.7503 31.3276 13.7156 28.8265 12.2295C26.3253 10.7434 23.6042 10.0003 20.6633 10.0003C17.5575 10.0003 14.7058 10.8267 12.1085 12.4795C9.51111 14.1323 7.52529 16.3614 6.15102 19.167C7.52529 21.9725 9.51111 24.2017 12.1085 25.8545C14.7058 27.5073 17.5575 28.3337 20.6633 28.3337C21.213 28.3337 21.7627 28.3059 22.3124 28.2503C22.8621 28.1948 23.4118 28.1114 23.9615 28.0003V31.3753C23.4118 31.4587 22.8621 31.5281 22.3124 31.5837C21.7627 31.6392 21.213 31.667 20.6633 31.667ZM20.6633 26.667C21.268 26.667 21.852 26.5975 22.4155 26.4587C22.9789 26.3198 23.508 26.1253 24.0028 25.8753C24.1402 24.4864 24.5731 23.2364 25.3015 22.1253C26.0298 21.0142 26.9575 20.1253 28.0844 19.4587V19.167C28.0844 17.0837 27.3629 15.3128 25.9199 13.8545C24.4769 12.3962 22.7247 11.667 20.6633 11.667C18.6019 11.667 16.8497 12.3962 15.4067 13.8545C13.9637 15.3128 13.2422 17.0837 13.2422 19.167C13.2422 21.2503 13.9637 23.0212 15.4067 24.4795C16.8497 25.9378 18.6019 26.667 20.6633 26.667ZM28.9089 35.0003C28.4417 35.0003 28.05 34.8406 27.7339 34.5212C27.4178 34.2017 27.2598 33.8059 27.2598 33.3337V28.3337C27.2598 27.8614 27.4178 27.4656 27.7339 27.1462C28.05 26.8267 28.4417 26.667 28.9089 26.667V25.0003C28.9089 24.0837 29.2319 23.2989 29.8778 22.6462C30.5237 21.9934 31.3001 21.667 32.2072 21.667C33.1142 21.667 33.8906 21.9934 34.5365 22.6462C35.1825 23.2989 35.5054 24.0837 35.5054 25.0003V26.667C35.9727 26.667 36.3643 26.8267 36.6804 27.1462C36.9965 27.4656 37.1545 27.8614 37.1545 28.3337V33.3337C37.1545 33.8059 36.9965 34.2017 36.6804 34.5212C36.3643 34.8406 35.9727 35.0003 35.5054 35.0003H28.9089ZM30.558 26.667H33.8563V25.0003C33.8563 24.5281 33.6982 24.1323 33.3822 23.8128C33.0661 23.4934 32.6744 23.3337 32.2072 23.3337C31.7399 23.3337 31.3482 23.4934 31.0322 23.8128C30.7161 24.1323 30.558 24.5281 30.558 25.0003V26.667Z" fill="#FF2684"/>
</g>
</svg>
