<svg width="32" height="27" viewBox="0 0 32 27" fill="none" xmlns="http://www.w3.org/2000/svg">
<path d="M6.33205 3.59182C6.61387 3.67364 6.88659 3.90546 7.01841 4.16455C7.07296 4.27364 7.22296 4.88273 7.35932 5.51001L7.60023 6.66L16.9184 6.68273L16.932 6.91C16.9548 7.34637 17.082 8.22819 17.1684 8.57819C17.9911 11.7873 20.632 14.11 23.9411 14.5191C24.1502 14.5464 24.423 14.5691 24.5457 14.5691C24.7548 14.5691 24.7684 14.5782 24.7457 14.6691C24.732 14.7282 24.5457 15.61 24.3275 16.6373C23.8866 18.7236 23.8593 18.8009 23.4684 19.0464L23.2457 19.1827L16.7502 19.1964C12.8002 19.2009 10.2593 19.2236 10.2593 19.2464C10.2593 19.2736 10.2866 19.4191 10.323 19.5782C10.3593 19.7373 10.4139 19.9827 10.4411 20.1236L10.4911 20.3873H16.432C20.2139 20.3873 22.432 20.4055 22.5366 20.4327C22.773 20.4964 23.0593 20.7645 23.1457 21.0009C23.3275 21.4691 23.1502 21.9873 22.7275 22.2373L22.5093 22.3646L16.1275 22.3782C9.04568 22.3918 9.45932 22.4055 9.08659 22.0873C8.9775 21.9964 8.85023 21.8418 8.80023 21.7373C8.74114 21.6236 8.48659 20.5191 8.14568 18.8918C7.83659 17.4282 7.27296 14.7646 6.89568 12.9782C5.9775 8.63728 5.90932 8.29637 5.59568 6.81001L5.3275 5.52364H3.13205C1.60023 5.52364 0.872957 5.50546 0.722957 5.4691C0.427502 5.39637 0.113865 5.07819 0.0365924 4.77364C-0.0588621 4.39637 0.0320475 4.07818 0.313866 3.81C0.618411 3.51909 0.513865 3.52818 3.44568 3.52364C5.66387 3.52364 6.14568 3.53273 6.33205 3.59182Z" fill="black"/>
<path d="M13.1366 23.7282C13.4411 23.8782 13.7002 24.1418 13.882 24.4873C13.9957 24.7009 14.0093 24.7736 14.0093 25.16C14.0093 25.5327 13.9911 25.6282 13.8866 25.8509C13.582 26.5009 12.8411 26.8873 12.1457 26.7509C11.223 26.5691 10.6411 25.6782 10.8684 24.7918C11.0093 24.26 11.3275 23.8918 11.8411 23.6736C12.2093 23.5191 12.7593 23.5418 13.1366 23.7282Z" fill="black"/>
<path d="M20.1002 23.7464C20.6502 24.0191 20.9639 24.5555 20.9593 25.2055C20.9548 25.6191 20.823 25.9555 20.5366 26.26C19.7684 27.0964 18.3866 26.8782 17.9002 25.8418C17.8002 25.6282 17.782 25.5327 17.782 25.16C17.7866 24.6736 17.8639 24.4555 18.1548 24.1146C18.4911 23.7236 18.873 23.5646 19.4275 23.5827C19.7366 23.5964 19.8457 23.6236 20.1002 23.7464Z" fill="black"/>
<path fill-rule="evenodd" clip-rule="evenodd" d="M30.8048 3.68273C29.823 1.75546 28.0684 0.459996 25.9411 0.087269C25.4366 0.00090538 24.6093 -0.0263661 24.123 0.0281794C21.6366 0.305452 19.5275 1.91 18.6093 4.23273C17.182 7.81909 19.1139 11.8782 22.8093 13.06C23.5002 13.2827 24.0048 13.3555 24.8275 13.3555C25.632 13.36 26.073 13.2918 26.823 13.0645C29.1548 12.3509 30.932 10.3645 31.3911 7.96C31.673 6.49637 31.4639 4.97818 30.8048 3.68273ZM24.373 3.02364C24.423 2.96455 24.5275 2.89182 24.6002 2.86001C24.8502 2.74182 25.173 2.85091 25.3366 3.10091C25.4093 3.21001 25.4184 3.37819 25.432 4.6691L25.4457 6.11455H28.3593L28.5093 6.26455C28.7866 6.54182 28.7593 6.93728 28.4366 7.1691C28.332 7.25091 28.223 7.25546 26.8866 7.25091H25.4457L25.432 8.69637C25.4185 10.2918 25.4184 10.2918 25.112 10.4766L25.1093 10.4782C24.8639 10.6282 24.5866 10.5782 24.373 10.3418C24.2866 10.2464 24.282 10.16 24.2593 8.75546L24.2366 7.27364L22.7866 7.26455C21.5637 7.2577 21.2804 7.25859 21.1373 7.11743C21.0905 7.07128 21.0587 7.00994 21.0139 6.92819C20.9048 6.72364 20.9411 6.48273 21.123 6.28273L21.2502 6.13728L24.2366 6.09182L24.2593 4.61C24.282 3.20546 24.2866 3.1191 24.373 3.02364Z" fill="black"/>
</svg>
