<svg width="16" height="16" viewBox="0 0 16 16" fill="none" xmlns="http://www.w3.org/2000/svg">
<path d="M4.0281 13.7146L1.96721 13.2449C1.77986 13.2058 1.62998 13.1045 1.51756 12.9412C1.40515 12.7783 1.36144 12.5991 1.38642 12.4034L1.59251 10.1919L0.187354 8.50883C0.0624512 8.36532 0 8.19571 0 8C0 7.80429 0.0624512 7.63468 0.187354 7.49117L1.59251 5.8081L1.38642 3.59663C1.36144 3.40092 1.40515 3.22166 1.51756 3.05883C1.62998 2.89548 1.77986 2.79424 1.96721 2.7551L4.0281 2.2854L5.11475 0.367491C5.21468 0.19788 5.35207 0.0869802 5.52693 0.0347921C5.7018 -0.017396 5.87666 -0.0108725 6.05152 0.0543626L8 0.915466L9.94848 0.0543626C10.1233 -0.0108725 10.2982 -0.017396 10.4731 0.0347921C10.6479 0.0869802 10.7853 0.19788 10.8852 0.367491L11.9719 2.2854L14.0328 2.7551C14.2201 2.79424 14.37 2.89548 14.4824 3.05883C14.5948 3.22166 14.6386 3.40092 14.6136 3.59663L14.4075 5.8081L15.8126 7.49117C15.9375 7.63468 16 7.80429 16 8C16 8.19571 15.9375 8.36532 15.8126 8.50883L14.4075 10.1919L14.6136 12.4034C14.6386 12.5991 14.5948 12.7783 14.4824 12.9412C14.37 13.1045 14.2201 13.2058 14.0328 13.2449L11.9719 13.7146L10.8852 15.6325C10.7853 15.8021 10.6479 15.913 10.4731 15.9652C10.2982 16.0174 10.1233 16.0109 9.94848 15.9456L8 15.0845L6.05152 15.9456C5.87666 16.0109 5.7018 16.0174 5.52693 15.9652C5.35207 15.913 5.21468 15.8021 5.11475 15.6325L4.0281 13.7146ZM6.68853 10.231C6.82592 10.3746 7.00078 10.4463 7.21312 10.4463C7.42545 10.4463 7.60031 10.3746 7.73771 10.231L10.9227 6.90405C11.0726 6.74749 11.1475 6.56144 11.1475 6.3459C11.1475 6.13088 11.0726 5.94509 10.9227 5.78853C10.7728 5.63197 10.595 5.55368 10.3891 5.55368C10.1828 5.55368 10.0047 5.63197 9.8548 5.78853L7.21312 8.54797L6.12646 7.43245C5.97658 7.28894 5.79872 7.22031 5.59288 7.22657C5.38654 7.23336 5.21468 7.30851 5.07728 7.45202C4.93989 7.59554 4.87119 7.7782 4.87119 8C4.87119 8.2218 4.93989 8.40446 5.07728 8.54797L6.68853 10.231Z" fill="#434343"/>
</svg>
