<svg width="25" height="21" viewBox="0 0 25 21" fill="none" xmlns="http://www.w3.org/2000/svg">
<path d="M5 21H20C20 21 21.25 21 22.5 18.5294C23.75 16.0588 25 7.41176 25 7.41176C25 7.41176 25 6.17647 23.75 6.17647C22.5 6.17647 20 6.17647 20 6.17647C20 6.17647 18.125 3.04795 17.5 2.47059C16.875 1.89322 15 0 12.5 0C10 0 8.125 1.85294 7.5 2.47059C6.875 3.08824 5 6.17647 5 6.17647H6.875C6.875 6.17647 7.5 4.94118 8.75 3.08824C10 1.23529 11.875 1.23529 12.5 1.23529C13.125 1.23529 15 1.23529 16.25 3.08824C17.5 4.94118 18.125 6.17647 18.125 6.17647H6.875H5C5 6.17647 2.5 6.17647 1.25 6.17647C0 6.17647 0 7.41176 0 7.41176C0 7.41176 1.25 16.0588 2.5 18.5294C3.75 21 5 21 5 21Z" fill="currentColor"/>
</svg>
