<svg width="80" height="60" viewBox="0 0 80 60" fill="none" xmlns="http://www.w3.org/2000/svg">
<rect width="80" height="60" fill="white"/>
<path d="M27.9929 11.7459C28.3868 11.2216 28.4491 10.5329 28.1553 9.94863C27.8616 9.36435 27.272 9 26.6178 9H15V12.3458H23.3534L15.3827 22.9562C14.9889 23.4805 14.9288 24.1693 15.2203 24.7535C15.514 25.3378 16.1015 25.7022 16.7579 25.7022H28.3756V22.3564H20.0245L27.9929 11.7459Z" fill="#0033C9"/>
<path d="M58.3089 12.3391C54.6195 12.3391 51.6177 15.336 51.6177 19.0195C51.6177 22.7029 54.6195 25.6999 58.3089 25.6999C61.9983 25.6999 65 22.7029 65 19.0195C65 15.336 61.9983 12.3391 58.3089 12.3391ZM58.3089 22.3564C56.4664 22.3564 54.9689 20.859 54.9689 19.0217C54.9689 17.1844 56.4664 15.687 58.3089 15.687C60.1514 15.687 61.6489 17.1844 61.6489 19.0217C61.6489 20.859 60.1514 22.3564 58.3089 22.3564Z" fill="#0033C9"/>
<path d="M43.0041 22.3541V12.3391H39.6485V13.5587C38.616 12.8011 37.361 12.3546 36.0037 12.3546C32.4856 12.3546 29.6329 15.3427 29.6329 19.0261C29.6329 22.7096 32.4856 25.6977 36.0037 25.6977C37.6503 25.6977 39.1456 25.0379 40.2783 23.9648C40.9636 25.009 42.1452 25.6999 43.4892 25.6999H44.6752V22.3541H43.0063H43.0041ZM36.313 22.3564C34.4727 22.3564 32.9796 20.8656 32.9796 19.0284C32.9796 17.1911 34.4727 15.7004 36.313 15.7004C38.1532 15.7004 39.6463 17.1911 39.6463 19.0284C39.6463 20.8679 38.1532 22.3564 36.313 22.3564Z" fill="#0033C9"/>
<path d="M49.2993 22.352V9H45.9414V21.8654C45.9414 23.9827 47.6615 25.7022 49.7821 25.7022H50.9793V22.3542H49.2993V22.352Z" fill="#0033C9"/>
<path d="M54.1653 35.6383L50.6029 43.9405L47.218 35.6383H43.5979L48.747 48.2638L46.2836 54H49.9309L57.8125 35.6383H54.1653Z" fill="#00CF6A"/>
<path d="M41.6843 45.6534V35.6383H38.3285V36.858C37.296 36.1004 36.0412 35.6539 34.6837 35.6539C31.1657 35.6539 28.3128 38.6419 28.3128 42.3254C28.3128 46.0088 31.1657 48.9969 34.6837 48.9969C36.3301 48.9969 37.8256 48.3371 38.9581 47.264C39.6435 48.3082 40.8254 48.9991 42.169 48.9991H43.3553V45.6534H41.6863H41.6843ZM34.9954 45.6556C33.1547 45.6556 31.6617 44.1649 31.6617 42.3276C31.6617 40.4903 33.1547 38.9996 34.9954 38.9996C36.8355 38.9996 38.3285 40.4903 38.3285 42.3276C38.3285 44.1671 36.8355 45.6556 34.9954 45.6556Z" fill="#00CF6A"/>
<path d="M21.6914 30.7053C18.0018 30.7053 15 33.7022 15 37.3857V49.0714H18.3514V43.1664C19.3346 43.7351 20.474 44.0661 21.6914 44.0661C25.3805 44.0661 28.3823 41.0691 28.3823 37.3857C28.3823 33.7022 25.3805 30.7053 21.6914 30.7053ZM21.6914 40.7226C19.8488 40.7226 18.3514 39.2252 18.3514 37.3879C18.3514 35.5506 19.8508 34.0533 21.6914 34.0533C23.5315 34.0533 25.031 35.5506 25.031 37.3879C25.031 39.2252 23.5335 40.7226 21.6914 40.7226Z" fill="#00CF6A"/>
</svg>
