<svg width="41" height="40" viewBox="0 0 41 40" fill="none" xmlns="http://www.w3.org/2000/svg">
<mask id="mask0_491_2364" style="mask-type:alpha" maskUnits="userSpaceOnUse" x="0" y="0" width="41" height="40">
<rect x="0.873779" width="39.5789" height="40" fill="#D9D9D9"/>
</mask>
<g mask="url(#mask0_491_2364)">
<path d="M25.6107 33.3337C21.9276 33.3337 18.808 32.042 16.2519 29.4587C13.6958 26.8753 12.4177 23.7225 12.4177 20.0003C12.4177 16.3059 13.6958 13.16 16.2519 10.5628C18.808 7.9656 21.9276 6.66699 25.6107 6.66699C29.2662 6.66699 32.3789 7.9656 34.9488 10.5628C37.5187 13.16 38.8036 16.3059 38.8036 20.0003C38.8036 23.7225 37.5187 26.8753 34.9488 29.4587C32.3789 32.042 29.2662 33.3337 25.6107 33.3337ZM25.6107 30.0003C28.3592 30.0003 30.6955 29.0281 32.6194 27.0837C34.5434 25.1392 35.5054 22.7781 35.5054 20.0003C35.5054 17.2225 34.5434 14.8614 32.6194 12.917C30.6955 10.9725 28.3592 10.0003 25.6107 10.0003C22.8621 10.0003 20.5259 10.9725 18.6019 12.917C16.6779 14.8614 15.7159 17.2225 15.7159 20.0003C15.7159 22.7781 16.6779 25.1392 18.6019 27.0837C20.5259 29.0281 22.8621 30.0003 25.6107 30.0003ZM29.3624 26.2087L31.7124 23.8337L27.2598 19.3337V13.3337H23.9615V20.7087L29.3624 26.2087ZM4.17207 15.0003V11.667H10.7686V15.0003H4.17207ZM2.52295 21.667V18.3337H10.7686V21.667H2.52295ZM4.17207 28.3337V25.0003H10.7686V28.3337H4.17207Z" fill="#FF2684"/>
</g>
</svg>
