<svg width="512" height="512" viewBox="0 0 512 512" fill="none" xmlns="http://www.w3.org/2000/svg">
<g clip-path="url(#clip0_583_6822)">
<circle cx="256" cy="256" r="256" fill="#3D9532"/>
<path d="M250.348 95.9058C284.797 94.5975 320.142 104.216 348 125C348.781 125.572 349.562 126.145 350.367 126.734C356.216 131.147 361.647 136.003 367 141C368.205 142.106 368.205 142.106 369.434 143.234C392.582 165.308 406.752 195.984 413 227C413.208 228.03 413.415 229.06 413.629 230.121C416.377 246.127 415.933 263.061 413 279C412.876 279.71 412.753 280.42 412.625 281.152C407.99 307.409 397.72 332.092 381 353C380.535 353.583 380.07 354.167 379.59 354.768C354.562 385.775 317.279 408.069 277.337 412.728C270.4 413.294 263.457 413.364 256.5 413.375C255.783 413.377 255.067 413.379 254.329 413.382C244.75 413.378 235.453 412.649 226 411C224.831 410.797 224.831 410.797 223.638 410.59C213.877 408.758 204.893 405.62 195.775 401.73C194.979 401.392 194.183 401.055 193.363 400.707C192.665 400.403 191.967 400.098 191.247 399.784C185.391 397.74 180.798 398.171 174.867 399.625C174.085 399.807 173.303 399.99 172.498 400.178C169.954 400.774 167.415 401.387 164.875 402C163.119 402.416 161.362 402.83 159.605 403.244C146.92 406.246 134.265 409.372 121.633 412.59C103.299 417.226 103.299 417.226 99.125 415C96.2091 409.816 98.3073 402.396 99.5039 396.883C99.6627 396.12 99.8215 395.357 99.9851 394.571C100.327 392.936 100.672 391.302 101.02 389.668C101.57 387.09 102.109 384.511 102.646 381.931C104.104 374.944 105.583 367.962 107.066 360.98C107.895 357.074 108.718 353.167 109.537 349.259C109.99 347.11 110.453 344.962 110.916 342.815C113.805 330.74 113.805 330.74 110.875 319.062C93.4629 283.153 92.7181 241.083 105.12 203.505C113.08 180.844 125.585 161.414 142 144C142.648 143.287 143.297 142.574 143.965 141.84C155.359 129.789 169.273 120.462 184 113C184.631 112.678 185.263 112.356 185.914 112.024C206.315 101.753 227.593 96.8192 250.348 95.9058ZM158.395 177.086C147.048 190.894 138.972 207.614 135 225C134.702 226.209 134.404 227.418 134.098 228.664C127.551 257.831 132.44 287.613 146.372 313.736C149.795 320.204 150.279 323.95 148.637 331.102C148.485 331.779 148.333 332.456 148.176 333.153C147.689 335.313 147.189 337.469 146.687 339.625C146.042 342.45 145.401 345.275 144.762 348.102C144.607 348.784 144.452 349.466 144.292 350.169C141.869 360.488 141.869 360.488 141 371C149.345 370.326 157.365 368.453 165.5 366.562C166.876 366.246 168.252 365.931 169.629 365.615C170.633 365.384 170.633 365.384 171.658 365.148C173.616 364.701 175.576 364.262 177.536 363.823C179.578 363.338 181.611 362.806 183.61 362.169C189.234 360.44 192.455 361.527 197.648 364.177C198.528 364.655 199.407 365.133 200.312 365.625C202.171 366.571 204.031 367.513 205.895 368.449C206.778 368.898 207.662 369.347 208.573 369.81C231.186 380.896 260.888 382.348 285 376C285.962 375.751 285.962 375.751 286.944 375.496C308.547 369.758 326.395 358.767 343 344C343.656 343.429 344.312 342.858 344.988 342.27C365.479 323.246 378.832 292.624 380.148 264.88C380.5 252.885 380.771 240.742 378 229C377.72 227.786 377.441 226.571 377.152 225.32C372.481 206.059 363.575 189.177 351 174C350.37 173.228 349.739 172.456 349.09 171.66C345.118 166.946 340.779 162.886 336 159C334.759 157.967 334.759 157.967 333.492 156.914C321.376 147.295 306.797 139.53 292 135C291.39 134.807 290.78 134.614 290.151 134.415C278.844 130.99 267.476 130.605 255.75 130.563C255.033 130.556 254.317 130.55 253.578 130.544C215.15 130.331 183.497 148.861 158.395 177.086Z" fill="#FDFEFD"/>
<path d="M207 178C212.09 180.693 214.372 183.691 216.613 188.848C217.063 189.827 217.063 189.827 217.522 190.827C218.468 192.898 219.39 194.98 220.313 197.063C220.95 198.465 221.588 199.867 222.229 201.268C228.566 215.208 228.566 215.208 228 222C226.403 225.379 224.77 228.069 222.398 230.938C219.187 234.833 216.969 237.74 217.426 242.941C219.74 251.238 227.256 257.932 233 264C233.576 264.617 234.152 265.235 234.746 265.871C241.844 273.241 250.034 279.403 258.313 285.375C258.887 285.792 259.461 286.209 260.053 286.638C265.514 290.52 270.255 293.662 277.063 293.34C283.09 292.283 287.228 286.925 291.266 282.707C293.563 280.446 294.612 280.037 297.852 279.73C303.549 279.817 308.951 281.723 314.375 283.313C315.46 283.621 316.546 283.93 317.664 284.248C320.783 285.143 323.893 286.063 327 287C327.886 287.266 328.773 287.532 329.686 287.805C330.482 288.055 331.278 288.305 332.098 288.563C332.784 288.776 333.469 288.99 334.176 289.211C337.728 290.747 339.043 292.653 341 296C342.136 301.584 341.017 304.517 338.125 309.375C330.736 320.079 322.21 328.157 309.375 331.312C288.972 334.549 270.618 329.131 253 319C252.328 318.617 251.657 318.234 250.965 317.839C241.117 312.144 232.422 305.624 224 298C223.474 297.529 222.948 297.058 222.406 296.572C218.895 293.425 215.437 290.228 212 287C211.294 286.348 210.587 285.695 209.859 285.023C191.99 267.953 176.642 244.055 175.597 218.901C175.387 206.215 179.829 197.575 188 188C198.736 177.311 198.736 177.311 207 178Z" fill="#FDFEFD"/>
</g>
<defs>
<clipPath id="clip0_583_6822">
<rect width="512" height="512" fill="white"/>
</clipPath>
</defs>
</svg>
