<svg width="16" height="16" viewBox="0 0 16 16" fill="none" xmlns="http://www.w3.org/2000/svg">
<path d="M4.2552 15.7668C3.86726 16.0691 3.47088 16.0775 3.06606 15.792C2.66125 15.5066 2.52631 15.1288 2.66125 14.6586L4.1034 9.9991L0.434765 7.40488C0.0299505 7.11943 -0.0921686 6.74163 0.0684079 6.27148C0.22831 5.80133 0.552836 5.56625 1.04199 5.56625H5.57085L7.03831 0.730413C7.12264 0.495337 7.25353 0.314666 7.43097 0.188396C7.60774 0.062799 7.79733 0 7.99974 0C8.20215 0 8.39174 0.062799 8.56851 0.188396C8.74595 0.314666 8.87684 0.495337 8.96117 0.730413L10.4286 5.56625H14.9575C15.4466 5.56625 15.7715 5.80133 15.9321 6.27148C16.092 6.74163 15.9695 7.11943 15.5647 7.40488L11.8961 9.9991L13.3382 14.6586C13.4732 15.1288 13.3382 15.5066 12.9334 15.792C12.5286 16.0775 12.1322 16.0691 11.7443 15.7668L7.99974 12.9208L4.2552 15.7668Z" fill="#7F7F7F"/>
</svg>
