<svg width="25" height="23" viewBox="0 0 25 23" fill="none" xmlns="http://www.w3.org/2000/svg">
<path d="M12.8823 22.02L11.1423 20.46C9.12232 18.64 7.45232 17.07 6.13232 15.75C4.81232 14.43 3.76232 13.245 2.98232 12.195C2.20232 11.145 1.65732 10.18 1.34732 9.3C1.03732 8.42 0.882324 7.52 0.882324 6.6C0.882324 4.72 1.51232 3.15 2.77232 1.89C4.03232 0.63 5.60232 0 7.48232 0C8.52232 0 9.51232 0.22 10.4523 0.66C11.3923 1.1 12.2023 1.72 12.8823 2.52C13.5623 1.72 14.3723 1.1 15.3123 0.66C16.2523 0.22 17.2423 0 18.2823 0C20.1623 0 21.7323 0.63 22.9923 1.89C24.2523 3.15 24.8823 4.72 24.8823 6.6C24.8823 7.52 24.7273 8.42 24.4173 9.3C24.1073 10.18 23.5623 11.145 22.7823 12.195C22.0023 13.245 20.9523 14.43 19.6323 15.75C18.3123 17.07 16.6423 18.64 14.6223 20.46L12.8823 22.02Z" fill="black"/>
</svg>
