<svg width="24" height="24" viewBox="0 0 24 24" fill="none" xmlns="http://www.w3.org/2000/svg">
<path d="M9.63467 0.671783C9.08268 1.05127 7.44812 2.16889 6.00611 3.15306C4.55982 4.13724 3.39594 4.95877 3.41734 4.97545C3.43446 4.99213 4.2988 5.5843 5.33431 6.29324C6.36982 6.99801 7.72625 7.9238 8.35098 8.35333C8.97571 8.77869 9.73736 9.29997 10.0454 9.51265C10.3535 9.72533 10.6274 9.89631 10.6573 9.89631C10.6916 9.89631 10.7044 9.46678 10.7044 8.31163V6.72694H11.0424C11.8084 6.72694 12.9808 7.01886 13.7981 7.41503C16.7292 8.83708 18.291 11.9898 17.5892 15.0882C16.8319 18.4286 13.6954 20.718 10.1909 20.4845C6.67363 20.251 3.84524 17.4986 3.60989 14.0874L3.57994 13.6287L1.79134 13.6161C0.113984 13.6078 0.00701044 13.612 0.00273149 13.6787C-0.0186633 14.1249 0.0883106 15.0882 0.229516 15.7555C1.00829 19.4586 3.92654 22.5363 7.67062 23.5955C8.69757 23.8874 9.5662 24 10.7044 24C11.9325 23.9958 12.9295 23.8415 14.0634 23.4746C17.6791 22.2985 20.3962 19.3043 21.1408 15.6721C21.2991 14.9047 21.3333 14.5127 21.3333 13.6078C21.3333 12.4318 21.2178 11.627 20.9012 10.6052C20.1224 8.09478 18.4194 5.98047 16.0959 4.64183C14.7951 3.89119 13.2076 3.3866 11.7741 3.26566C11.4789 3.24064 11.1195 3.21145 10.974 3.19894L10.7044 3.17391V1.59757C10.7044 0.730165 10.6916 0.00871658 10.6745 0.000377655C10.6531 -0.0121346 10.1867 0.288122 9.63467 0.671783Z" fill="currentColor"/>
</svg>
