<svg width="230" height="230" viewBox="0 0 230 230" fill="none" xmlns="http://www.w3.org/2000/svg">
<path fill-rule="evenodd" clip-rule="evenodd" d="M216.234 141.203C220.771 123.684 220.694 105.289 216.01 87.8088L177.169 98.2162C180.056 108.989 180.103 120.325 177.307 131.121L216.234 141.203Z" fill="black"/>
<path fill-rule="evenodd" clip-rule="evenodd" d="M215.848 86.9458C211.017 69.5056 201.753 53.6134 188.957 40.8171L160.523 69.2507C168.409 77.1366 174.118 86.9304 177.095 97.6782L215.848 86.9458Z" fill="black"/>
<path fill-rule="evenodd" clip-rule="evenodd" d="M188.334 40.1354C175.431 27.4468 159.462 18.3159 141.982 13.6322L131.574 52.473C131.574 52.473 131.574 52.473 131.574 52.473L114.86 114.851L114.86 114.85L114.86 114.851L188.334 40.1354ZM114.86 114.85L160.139 68.8061C152.188 60.9865 142.346 55.3595 131.574 52.473L114.86 114.85Z" fill="black"/>
<path fill-rule="evenodd" clip-rule="evenodd" d="M141.203 13.3335C123.684 8.79634 105.289 8.8734 87.8087 13.5572L98.2161 52.3981C98.216 52.3981 98.216 52.3982 98.2159 52.3982L114.93 114.776L114.93 114.775L114.93 114.776L141.203 13.3335ZM114.93 114.775L131.121 52.2603C120.325 49.4642 108.988 49.5117 98.2161 52.3981L114.93 114.775Z" fill="black"/>
<path fill-rule="evenodd" clip-rule="evenodd" d="M86.9462 13.7205C69.506 18.5506 53.6139 27.8149 40.8175 40.6112L69.251 69.0448L114.915 114.708L114.914 114.708L114.915 114.708L86.9462 13.7205ZM114.914 114.708L97.6785 52.473C86.9307 55.4496 77.1369 61.1588 69.251 69.0448L114.914 114.708Z" fill="black"/>
<path fill-rule="evenodd" clip-rule="evenodd" d="M40.1479 41.1873C27.4592 54.0904 18.3284 70.0596 13.6446 87.5396L52.4854 97.947C55.3719 87.1746 60.9989 77.3334 68.8185 69.3817L114.863 114.661L114.863 114.661L68.8185 69.3817L40.1479 41.1873Z" fill="black"/>
<path fill-rule="evenodd" clip-rule="evenodd" d="M52.2602 98.4469C49.4641 109.243 49.5116 120.579 52.398 131.352L13.557 141.759C8.87322 124.279 8.79617 105.884 13.3333 88.3653L52.2602 98.4469Z" fill="black"/>
<path fill-rule="evenodd" clip-rule="evenodd" d="M52.4732 131.89C55.4498 142.638 61.159 152.431 69.0449 160.317L40.6113 188.751C27.815 175.955 18.5507 160.063 13.7206 142.622L52.4732 131.89ZM114.708 114.654L52.4732 131.89C52.4732 131.89 52.4732 131.89 52.4731 131.89L114.708 114.654L114.708 114.654Z" fill="black"/>
<path fill-rule="evenodd" clip-rule="evenodd" d="M69.4286 160.762C77.3803 168.581 87.2215 174.208 97.9938 177.095L87.5863 215.936C70.1063 211.252 54.1371 202.121 41.234 189.433L69.4286 160.762ZM114.708 114.717L69.4286 160.762C69.4286 160.762 69.4285 160.762 69.4285 160.762L114.708 114.717L114.708 114.717Z" fill="black"/>
<path fill-rule="evenodd" clip-rule="evenodd" d="M98.4467 177.307C109.243 180.103 120.579 180.056 131.351 177.169L141.759 216.011C124.279 220.695 105.884 220.772 88.3649 216.234L98.4467 177.307ZM114.637 114.792L98.4467 177.307C98.4466 177.307 98.4465 177.307 98.4465 177.307L114.637 114.792L114.637 114.792Z" fill="black"/>
<path fill-rule="evenodd" clip-rule="evenodd" d="M160.317 160.523C160.317 160.523 160.317 160.523 160.317 160.523L114.653 114.86L114.653 114.86L160.317 160.523ZM131.889 177.095C142.637 174.118 152.431 168.409 160.317 160.523L188.751 188.957C175.954 201.753 160.062 211.018 142.622 215.848L131.889 177.095Z" fill="black"/>
<path fill-rule="evenodd" clip-rule="evenodd" d="M160.749 160.186C168.568 152.235 174.195 142.393 177.082 131.621L215.923 142.028C211.239 159.509 202.108 175.478 189.42 188.381L160.749 160.186ZM160.749 160.186L114.704 114.907L177.082 131.621L114.704 114.907L160.749 160.186Z" fill="black"/>
<path fill-rule="evenodd" clip-rule="evenodd" d="M105.865 94.4867C107.245 94.4867 108.573 94.646 109.9 94.9115C103.741 98.3632 101.563 102.718 101.563 102.718C97.1559 104.417 94.0228 108.718 94.0228 113.763C94.0228 120.294 99.3331 125.605 105.865 125.605C112.396 125.605 117.706 120.294 117.706 113.763C117.706 111.426 117.016 109.249 115.848 107.391C119.884 104.895 123.654 106.541 123.707 106.594C124.61 108.824 125.088 111.214 125.088 113.763C125.088 123.215 118.291 131.074 109.263 132.72V137.287H113.777C115.848 137.287 117.494 138.986 117.494 141.004C117.494 143.022 115.795 144.722 113.777 144.722H109.263V147.908C109.263 149.979 107.564 151.625 105.546 151.625C103.528 151.625 101.829 149.926 101.829 147.908V144.722H97.3152C95.2442 144.722 93.598 143.022 93.598 141.004C93.598 138.986 95.2973 137.287 97.3152 137.287H101.829V132.614C93.1201 130.756 86.5354 123.056 86.5354 113.763C86.5885 103.142 95.1911 94.4867 105.865 94.4867Z" fill="black"/>
<path fill-rule="evenodd" clip-rule="evenodd" d="M120.627 95.4956C124.823 95.4956 128.752 96.8231 131.938 99.0534L135.921 95.0177H132.894C131.195 95.0177 129.814 93.637 129.814 91.9377V90.9288C129.814 88.8578 131.513 87.2116 133.531 87.2116H146.488C148.081 87.2116 149.409 88.5392 149.409 90.1322V102.877C149.409 104.895 147.763 106.594 145.692 106.594H145.639C143.568 106.594 141.922 104.895 141.922 102.877V100.062L137.142 104.576C139.107 107.656 140.275 111.267 140.275 115.197C140.275 126.083 131.46 134.844 120.627 134.844C118.344 134.844 116.167 134.473 114.096 133.729C119.406 131.552 122.752 127.198 122.752 127.198C128.487 126.189 132.841 121.197 132.841 115.197C132.841 108.453 127.371 102.983 120.627 102.983C113.883 102.983 108.414 108.453 108.414 115.197C108.414 117.852 109.264 120.294 110.697 122.259C109.954 122.843 108.945 123.321 107.617 123.481C105.546 123.746 103.847 123.481 102.679 123.215C101.564 120.772 100.98 118.064 100.98 115.197C100.927 104.311 109.742 95.4956 120.627 95.4956Z" fill="black"/>
</svg>
