<svg width="796" height="319" viewBox="0 0 796 319" fill="none" xmlns="http://www.w3.org/2000/svg">
<g clip-path="url(#clip0_437_2566)">
<path fill-rule="evenodd" clip-rule="evenodd" d="M627.7 107.9C628.6 108 649.7 114.7 666 108.2C666 108.2 667.2 119.5 657.7 124.6C653.8 126.7 648.5 127.3 644.2 126.8C631.4 125.5 627.5 114.5 627.7 107.9ZM647.3 75.2C663.2 75.2 676 88.1 676 103.9C676 119.7 663.1 132.6 647.3 132.6C631.5 132.6 618.6 119.7 618.6 103.9C618.6 88.1 631.4 75.2 647.3 75.2ZM326.4 107.9C327.3 108 348.4 114.7 364.7 108.2C364.7 108.2 365.9 119.5 356.4 124.6C352.5 126.7 347.2 127.3 342.9 126.8C330.1 125.5 326.2 114.5 326.4 107.9ZM346 75.2C361.9 75.2 374.7 88.1 374.7 103.9C374.7 119.7 361.8 132.6 346 132.6C330.1 132.6 317.3 119.7 317.3 103.9C317.3 88.1 330.1 75.2 346 75.2Z" fill="black"/>
<path d="M737.3 138.4C745.1 138.4 752.4 140 759.2 143.2C766 146.4 772 150.9 777.3 156.6C782.6 162.3 786.8 168.9 789.9 176.5C793 184.1 794.8 192.2 795.1 201.1V296C795.1 301.3 793.4 305.8 790.1 309.4C786.8 313 782.7 314.8 778 314.8C773.1 314.8 768.9 313 765.6 309.4C762.3 305.8 760.6 301.4 760.6 296V201C760.6 197.5 760 194.2 758.7 191.1C757.4 188 755.7 185.3 753.6 183C751.5 180.7 749 178.9 746.2 177.6C743.4 176.3 740.4 175.7 737.1 175.7C733.9 175.7 730.8 176.3 727.9 177.6C725 178.9 722.5 180.7 720.4 183C718.3 185.3 716.6 188 715.3 191.1C714 194.2 713.4 197.5 713.4 201V296C713.4 301.3 711.7 305.8 708.4 309.4C705.1 313 701.1 314.8 696.5 314.8C691.6 314.8 687.4 313 684.1 309.4C680.8 305.8 679.1 301.4 679.1 296V201C679.3 192.5 680.8 184.5 683.8 177C686.8 169.5 690.9 162.9 696.2 157.3C701.5 151.7 707.6 147.2 714.6 143.9C721.8 140.6 729.3 138.7 737.3 138.4ZM647.5 138.6C652.1 138.6 656 140.4 659.4 144.1C662.8 147.8 664.4 152.1 664.4 157.1V296.2C664.4 301.4 662.7 305.7 659.4 309.3C656.1 312.9 652.1 314.7 647.5 314.7C642.6 314.7 638.4 312.9 635.1 309.3C631.8 305.7 630.1 301.3 630.1 296.2V157.1C630.1 152.1 631.8 147.8 635.1 144.1C638.5 140.5 642.6 138.6 647.5 138.6ZM597 138.6C601.4 138.6 605.5 140.3 609.1 143.8C612.8 147.3 614.6 151.7 614.6 157V296.1C614.6 298.5 614.1 300.8 613.2 303C612.3 305.2 610.9 307.2 609.2 308.9C607.5 310.6 605.6 312 603.5 313C601.4 314 599.2 314.5 597 314.5C592.6 314.5 588.7 312.7 585.3 309.1C581.9 305.5 580.2 301.1 580.2 296V245.2H535.8V296C535.8 301.2 534.1 305.5 530.8 309.1C527.5 312.7 523.4 314.5 518.4 314.5C513.8 314.5 509.9 312.8 506.5 309.3C503.1 305.8 501.4 301.4 501.3 296.1V157.1C501.3 151.4 503.1 146.9 506.8 143.6C510.5 140.3 514.3 138.6 518.4 138.6C523.3 138.6 527.5 140.4 530.8 144.1C534.1 147.8 535.8 152.1 535.8 157.1V207.9H580.2V157.1C580.2 152.1 581.9 147.8 585.3 144.1C588.7 140.4 592.6 138.6 597 138.6ZM471 254.6C475.6 254.6 479.6 256.4 483 260C486.4 263.6 488.1 268.1 488.1 273.4C488.1 275.2 487.8 277 487.2 278.6C486.6 280.3 485.9 282 485 283.8C480.1 293.2 473.1 300.7 464.1 306.3C455.1 311.9 445.4 314.7 435 314.7C427.5 314.7 420.3 313.1 413.3 309.9C406.3 306.7 400.2 302.3 394.8 296.7C389.4 291.1 385.2 284.5 382 276.8C378.8 269.1 377.3 260.9 377.3 252.1V201.3C377.3 193 378.8 185.1 381.8 177.6C384.8 170.1 388.9 163.4 394.2 157.6C399.5 151.8 405.6 147.2 412.6 143.8C419.6 140.4 427.1 138.7 435.1 138.7C445.3 138.7 454.9 141.5 463.9 147.1C472.9 152.7 480.1 160.5 485.3 170.4C486 171.7 486.6 173.3 487.2 175.1C487.8 176.9 488.1 178.7 488.1 180.3C488.1 185.5 486.4 189.9 483 193.5C479.6 197.2 475.5 199 470.8 199C467.1 199 464 197.9 461.6 195.8C459.2 193.7 457.1 191.1 455.2 187.9C453.2 184.2 450.4 181.3 446.9 179.1C443.4 176.9 439.5 175.8 435 175.8C431.8 175.8 428.7 176.4 425.9 177.7C423.1 179 420.6 180.8 418.5 183.1C416.4 185.4 414.7 188.1 413.4 191.2C412.1 194.3 411.5 197.6 411.5 201.1V251.9C411.5 255.4 412.1 258.7 413.4 261.8C414.7 264.9 416.4 267.6 418.5 269.9C420.6 272.2 423.1 274 425.9 275.3C428.7 276.6 431.7 277.2 435 277.2C439.4 277.2 443.3 276.1 446.7 273.9C450.1 271.7 452.9 268.7 455.1 265.1C457 262 458.9 259.4 461 257.4C463.1 255.6 466.4 254.6 471 254.6ZM346.2 138.6C350.8 138.6 354.7 140.4 358.1 144.1C361.4 147.8 363.1 152.1 363.1 157.1V296.2C363.1 301.4 361.4 305.7 358.1 309.3C354.8 312.9 350.8 314.7 346.2 314.7C341.3 314.7 337.1 312.9 333.8 309.3C330.5 305.7 328.8 301.3 328.8 296.2V157.1C328.8 152.1 330.5 147.8 333.8 144.1C337.2 140.5 341.3 138.6 346.2 138.6Z" fill="black"/>
<g clip-path="url(#clip1_437_2566)">
<path fill-rule="evenodd" clip-rule="evenodd" d="M313.251 204.556C319.824 179.177 319.713 152.529 312.927 127.206L256.659 142.283C260.841 157.888 260.91 174.311 256.859 189.951L313.251 204.556Z" fill="black"/>
<path fill-rule="evenodd" clip-rule="evenodd" d="M312.692 125.956C305.695 100.691 292.274 77.6682 273.736 59.1306L232.546 100.321C243.97 111.746 252.24 125.933 256.553 141.504L312.692 125.956Z" fill="black"/>
<path fill-rule="evenodd" clip-rule="evenodd" d="M272.834 58.1429C254.141 39.7613 231.007 26.5337 205.684 19.7485L190.608 76.0161C190.607 76.016 190.607 76.016 190.607 76.016L166.394 166.38L166.395 166.38L166.394 166.381L272.834 58.1429ZM166.395 166.38L231.989 99.6772C220.47 88.3492 206.213 80.1976 190.608 76.0161L166.395 166.38Z" fill="black"/>
<path fill-rule="evenodd" clip-rule="evenodd" d="M204.556 19.3158C179.177 12.7429 152.529 12.8545 127.206 19.6398L142.283 75.9075C157.888 71.726 174.311 71.6572 189.951 75.7078L204.556 19.3158Z" fill="black"/>
<path fill-rule="evenodd" clip-rule="evenodd" d="M125.956 19.8765C100.691 26.8736 77.6689 40.2945 59.1313 58.8321L100.322 100.023C111.746 88.5987 125.934 80.3279 141.504 76.0158L125.956 19.8765Z" fill="black"/>
<path fill-rule="evenodd" clip-rule="evenodd" d="M58.1612 59.6668C39.7795 78.3591 26.552 101.493 19.7667 126.816L166.399 166.106L76.0345 141.893C80.216 126.287 88.3677 112.03 99.6957 100.511L58.1612 59.6668Z" fill="black"/>
<path fill-rule="evenodd" clip-rule="evenodd" d="M19.3161 128.012C12.7432 153.391 12.8548 180.039 19.6401 205.362L75.9077 190.285C71.7262 174.68 71.6574 158.257 75.708 142.617L19.3161 128.012Z" fill="black"/>
<path fill-rule="evenodd" clip-rule="evenodd" d="M76.0166 191.064C80.3287 206.634 88.5996 220.822 100.024 232.246L58.8329 273.437C40.2953 254.9 26.8744 231.877 19.8773 206.612L76.0166 191.064ZM166.175 166.095L166.175 166.095L100.024 232.246L166.175 166.095ZM166.175 166.095L76.0166 191.064L166.175 166.095L166.175 166.095Z" fill="black"/>
<path fill-rule="evenodd" clip-rule="evenodd" d="M141.961 256.552C141.961 256.552 141.961 256.552 141.961 256.552L166.174 166.187L166.174 166.188L141.961 256.552ZM100.579 232.89C112.099 244.218 126.355 252.37 141.961 256.552L126.884 312.82C101.561 306.035 78.427 292.807 59.7347 274.425L100.579 232.89Z" fill="black"/>
<path fill-rule="evenodd" clip-rule="evenodd" d="M190.284 256.66C190.284 256.66 190.284 256.66 190.285 256.66L166.072 166.296L166.071 166.297L166.071 166.296L128.011 313.252C153.39 319.825 180.038 319.713 205.361 312.928L190.284 256.66ZM190.284 256.66L166.071 166.297L142.616 256.86C158.256 260.91 174.679 260.841 190.284 256.66Z" fill="black"/>
<path fill-rule="evenodd" clip-rule="evenodd" d="M191.064 256.552C206.634 252.24 220.822 243.969 232.246 232.545L273.437 273.736C254.899 292.274 231.877 305.695 206.612 312.692L191.064 256.552ZM166.095 166.394L166.095 166.394L232.246 232.545L166.095 166.394Z" fill="black"/>
<path fill-rule="evenodd" clip-rule="evenodd" d="M256.533 190.675C252.352 206.281 244.2 220.538 232.872 232.057L274.407 272.902C292.788 254.209 306.016 231.075 312.801 205.752L256.533 190.675ZM166.169 166.462L166.169 166.462L256.533 190.675C256.533 190.675 256.533 190.675 256.533 190.675L166.169 166.462Z" fill="black"/>
</g>
<path fill-rule="evenodd" clip-rule="evenodd" d="M153.363 136.88C155.363 136.88 157.286 137.111 159.21 137.495C150.286 142.496 147.132 148.804 147.132 148.804C140.747 151.265 136.208 157.497 136.208 164.805C136.208 174.267 143.901 181.96 153.363 181.96C162.825 181.96 170.518 174.267 170.518 164.805C170.518 161.42 169.518 158.266 167.825 155.573C173.672 151.958 179.134 154.342 179.211 154.419C180.518 157.65 181.211 161.112 181.211 164.805C181.211 178.498 171.364 189.883 158.286 192.268V198.884H164.825C167.825 198.884 170.21 201.345 170.21 204.269C170.21 207.192 167.748 209.654 164.825 209.654H158.286V214.269C158.286 217.269 155.825 219.654 152.901 219.654C149.978 219.654 147.517 217.192 147.517 214.269V209.654H140.978C137.977 209.654 135.593 207.192 135.593 204.269C135.593 201.345 138.054 198.884 140.978 198.884H147.517V192.114C134.9 189.422 125.361 178.267 125.361 164.805C125.438 149.419 137.901 136.88 153.363 136.88Z" fill="black"/>
<path fill-rule="evenodd" clip-rule="evenodd" d="M174.749 138.341C180.827 138.341 186.519 140.265 191.135 143.496L196.904 137.649H192.52C190.058 137.649 188.058 135.649 188.058 133.187V131.726C188.058 128.725 190.519 126.341 193.443 126.341H212.213C214.521 126.341 216.444 128.264 216.444 130.572V149.034C216.444 151.958 214.059 154.419 211.059 154.419H210.982C207.982 154.419 205.597 151.958 205.597 149.034V144.957L198.674 151.496C201.52 155.958 203.213 161.189 203.213 166.882C203.213 182.652 190.443 195.345 174.749 195.345C171.441 195.345 168.287 194.806 165.287 193.729C172.98 190.575 177.826 184.267 177.826 184.267C186.135 182.806 192.443 175.574 192.443 166.882C192.443 157.112 184.519 149.188 174.749 149.188C164.979 149.188 157.056 157.112 157.056 166.882C157.056 170.728 158.287 174.267 160.364 177.113C159.287 177.959 157.825 178.652 155.902 178.882C152.902 179.267 150.44 178.882 148.748 178.498C147.132 174.959 146.286 171.036 146.286 166.882C146.209 151.111 158.979 138.341 174.749 138.341Z" fill="black"/>
</g>
<defs>
<clipPath id="clip0_437_2566">
<rect width="795.1" height="319" fill="white"/>
</clipPath>
<clipPath id="clip1_437_2566">
<rect width="319" height="319" fill="white"/>
</clipPath>
</defs>
</svg>
