<svg width="80" height="60" viewBox="0 0 80 60" fill="none" xmlns="http://www.w3.org/2000/svg">
<rect width="80" height="60" fill="#A50064"/>
<g clip-path="url(#clip0_493_2590)">
<path d="M13 9C13 7.4087 13.6321 5.88258 14.7574 4.75736C15.8826 3.63214 17.4087 3 19 3L61 3C62.5913 3 64.1174 3.63214 65.2426 4.75736C66.3679 5.88258 67 7.4087 67 9V51C67 52.5913 66.3679 54.1174 65.2426 55.2426C64.1174 56.3679 62.5913 57 61 57H19C17.4087 57 15.8826 56.3679 14.7574 55.2426C13.6321 54.1174 13 52.5913 13 51V9Z" fill="#A50064"/>
<path d="M51.8942 10.5C47.2292 10.5 43.3795 14.2763 43.3795 19.0148C43.3795 23.6798 47.1557 27.5295 51.8942 27.5295C56.5592 27.5295 60.409 23.754 60.409 19.0148C60.409 14.3498 56.632 10.5 51.8942 10.5ZM51.8942 22.6425C50.9326 22.6409 50.0108 22.2582 49.3308 21.5782C48.6508 20.8982 48.2681 19.9764 48.2665 19.0148C48.2681 18.0531 48.6508 17.1313 49.3308 16.4513C50.0108 15.7713 50.9326 15.3886 51.8942 15.387C52.8559 15.3886 53.7777 15.7713 54.4577 16.4513C55.1377 17.1313 55.5204 18.0531 55.522 19.0148C55.5206 19.9765 55.138 20.8986 54.458 21.5787C53.778 22.2589 52.856 22.6409 51.8942 22.6425ZM34.5685 10.5C33.1835 10.497 31.8339 10.9381 30.718 11.7585C29.6815 10.944 28.348 10.5 26.8675 10.5C23.314 10.5 20.5 13.3875 20.5 16.8675V27.5295H25.387V16.8675C25.387 16.053 26.053 15.4613 26.794 15.4613C27.6077 15.4613 28.2002 16.1273 28.2002 16.8675V27.5295H33.0872V16.8675C33.0872 16.053 33.754 15.4613 34.4942 15.4613C35.3087 15.4613 35.9012 16.1273 35.9012 16.8675V27.5295H40.7875V16.9425C40.936 13.3875 38.122 10.5 34.5685 10.5ZM51.8942 31.2323C47.2292 31.2323 43.3795 35.0085 43.3795 39.747C43.3795 44.412 47.1557 48.2618 51.8942 48.2618C56.5592 48.2618 60.409 44.4855 60.409 39.747C60.4151 38.6272 60.199 37.5173 59.7733 36.4816C59.3476 35.4458 58.7207 34.5048 57.9289 33.7129C57.1371 32.9211 56.1961 32.2941 55.1604 31.8683C54.1247 31.4425 53.0141 31.2263 51.8942 31.2323ZM51.8942 43.3013C50.9325 43.2997 50.0105 42.9169 49.3305 42.2367C48.6505 41.5566 48.2679 40.6345 48.2665 39.6728C48.2681 38.7111 48.6508 37.7893 49.3308 37.1093C50.0108 36.4293 50.9326 36.0466 51.8942 36.045C52.8559 36.0466 53.7777 36.4293 54.4577 37.1093C55.1377 37.7893 55.5204 38.7111 55.522 39.6728C55.522 41.7458 53.8937 43.3013 51.8942 43.3013ZM34.5685 31.2323C33.1835 31.2293 31.8339 31.6704 30.718 32.4908C29.6815 31.6763 28.348 31.2323 26.8675 31.2323C23.314 31.2323 20.5 34.1198 20.5 37.5998V48.2618H25.387V37.5255C25.387 36.711 26.053 36.1185 26.794 36.1185C27.6077 36.1185 28.2002 36.7853 28.2002 37.5255V48.1883H33.0872V37.5255C33.0872 36.711 33.754 36.1185 34.4942 36.1185C35.3087 36.1185 35.9012 36.7853 35.9012 37.5255V48.1883H40.7875V37.5998C40.936 34.0455 38.122 31.2323 34.5685 31.2323Z" fill="white"/>
</g>
<defs>
<clipPath id="clip0_493_2590">
<rect width="54" height="54" fill="white" transform="translate(13 3)"/>
</clipPath>
</defs>
</svg>
