<svg width="60" height="60" viewBox="0 0 60 60" fill="none" xmlns="http://www.w3.org/2000/svg">
<mask id="mask0_276_1895" style="mask-type:luminance" maskUnits="userSpaceOnUse" x="0" y="0" width="60" height="60">
<path d="M47.767 0H12.233C5.4769 0 0 5.47691 0 12.233V47.767C0 54.5231 5.4769 60 12.233 60H47.767C54.5231 60 60 54.5231 60 47.767V12.233C60 5.47691 54.5231 0 47.767 0Z" fill="white"/>
</mask>
<g mask="url(#mask0_276_1895)">
<path d="M47.767 -0.000152588H12.233C5.4769 -0.000152588 0 5.47676 0 12.2329V47.7668C0 54.5229 5.4769 59.9998 12.233 59.9998H47.767C54.5231 59.9998 60 54.5229 60 47.7668V12.2329C60 5.47676 54.5231 -0.000152588 47.767 -0.000152588Z" fill="#007BFF" fill-opacity="0.3"/>
<mask id="mask1_276_1895" style="mask-type:luminance" maskUnits="userSpaceOnUse" x="0" y="-1" width="60" height="61">
<path d="M60 -0.000152588H0V59.9998H60V-0.000152588Z" fill="white"/>
</mask>
<g mask="url(#mask1_276_1895)">
<path d="M60 -1.16516H0V59.9999H60V-1.16516Z" fill="#0068FF"/>
</g>
<mask id="mask2_276_1895" style="mask-type:luminance" maskUnits="userSpaceOnUse" x="4" y="-8" width="108" height="79">
<path d="M111.335 -7.64569H4.95178V70.7039H111.335V-7.64569Z" fill="white"/>
</mask>
<g mask="url(#mask2_276_1895)">
<path opacity="0.117278" fill-rule="evenodd" clip-rule="evenodd" d="M8.953 51.846L27.1988 70.6361H107.487V12.5869L8.953 51.846Z" fill="black"/>
<path fill-rule="evenodd" clip-rule="evenodd" d="M13.4156 0.505865C24.7011 -10.363 50.2992 -10.363 61.5845 0.505865C72.8703 11.3752 72.8703 36.0282 61.5845 46.8968C50.2992 57.7656 24.7011 57.7656 13.4156 46.8968C2.1305 36.0282 2.1305 11.3752 13.4156 0.505865Z" fill="white"/>
<path fill-rule="evenodd" clip-rule="evenodd" d="M9.52245 52.0394C13.8269 52.5102 19.7969 50.3414 21.0638 48.1162C23.9075 43.1209 9.76087 42.2662 11.161 44.3398C12.451 46.2497 11.1989 49.5704 9.25439 51.5047C8.94345 51.8133 9.06787 51.9894 9.52245 52.0394Z" fill="white"/>
<path fill-rule="evenodd" clip-rule="evenodd" d="M24.8049 20.323H13.2037V22.8087H21.251L13.3027 32.6535C13.0624 33.0093 12.8723 33.3507 12.8723 34.1163V34.7415H23.8105C24.3595 34.7415 24.8049 34.2963 24.8049 33.7471V32.4213H16.3629L23.819 23.0567C23.9234 22.9215 24.143 22.6721 24.2368 22.5661L24.2884 22.507C24.7168 21.875 24.8049 21.3363 24.8049 20.6766V20.323Z" fill="#0068FF"/>
<path fill-rule="evenodd" clip-rule="evenodd" d="M39.5528 34.7415H41.2108V20.323H38.7245V33.9135C38.7245 34.37 39.096 34.7415 39.5528 34.7415Z" fill="#0068FF"/>
<path fill-rule="evenodd" clip-rule="evenodd" d="M31.0715 32.5127C29.2313 32.5127 27.7394 31.0209 27.7394 29.1806C27.7394 27.3404 29.2313 25.8487 31.0715 25.8487C32.9117 25.8487 34.4035 27.3404 34.4035 29.1806C34.4035 31.0209 32.9117 32.5127 31.0715 32.5127ZM31.0717 23.5163C27.9432 23.5163 25.4072 26.0527 25.4072 29.1806C25.4072 32.3091 27.9432 34.8451 31.0717 34.8451C34.2002 34.8451 36.7362 32.3091 36.7362 29.1806C36.7362 26.0527 34.2002 23.5163 31.0717 23.5163Z" fill="#0068FF"/>
<path fill-rule="evenodd" clip-rule="evenodd" d="M48.5607 32.5061C46.7081 32.5061 45.206 31.004 45.206 29.1512C45.206 27.2984 46.7081 25.7965 48.5607 25.7965C50.4134 25.7965 51.9156 27.2984 51.9156 29.1512C51.9156 31.004 50.4134 32.5061 48.5607 32.5061ZM48.5607 23.4484C45.4108 23.4484 42.8577 26.0015 42.8577 29.1514C42.8577 32.301 45.4108 34.8544 48.5607 34.8544C51.7103 34.8544 54.2637 32.301 54.2637 29.1514C54.2637 26.0015 51.7103 23.4484 48.5607 23.4484Z" fill="#0068FF"/>
<path fill-rule="evenodd" clip-rule="evenodd" d="M35.407 34.7412H36.7357V23.8311H34.4131V33.7475C34.4131 34.2965 34.858 34.7412 35.407 34.7412Z" fill="#0068FF"/>
</g>
</g>
</svg>
