<svg width="24" height="24" viewBox="0 0 24 24" fill="currentColor" xmlns="http://www.w3.org/2000/svg">
<path d="M2.4 19.8001V3.0001V16.6201V14.0701V19.8001ZM2.4 22.2001C1.74 22.2001 1.175 21.9651 0.705 21.4951C0.235 21.0251 0 20.4601 0 19.8001V3.0001C0 2.3401 0.235 1.7751 0.705 1.3051C1.175 0.835098 1.74 0.600098 2.4 0.600098H19.2C19.86 0.600098 20.425 0.835098 20.895 1.3051C21.365 1.7751 21.6 2.3401 21.6 3.0001V12.6001H19.2V3.0001H2.4V19.8001H10.8V22.2001H2.4ZM17.22 23.4001L12.96 19.1401L14.67 17.4601L17.22 20.0101L22.32 14.9101L24 16.6201L17.22 23.4001ZM6 12.6001C6.34 12.6001 6.625 12.4851 6.855 12.2551C7.085 12.0251 7.2 11.7401 7.2 11.4001C7.2 11.0601 7.085 10.7751 6.855 10.5451C6.625 10.3151 6.34 10.2001 6 10.2001C5.66 10.2001 5.375 10.3151 5.145 10.5451C4.915 10.7751 4.8 11.0601 4.8 11.4001C4.8 11.7401 4.915 12.0251 5.145 12.2551C5.375 12.4851 5.66 12.6001 6 12.6001ZM6 7.8001C6.34 7.8001 6.625 7.6851 6.855 7.4551C7.085 7.2251 7.2 6.9401 7.2 6.6001C7.2 6.2601 7.085 5.9751 6.855 5.7451C6.625 5.5151 6.34 5.4001 6 5.4001C5.66 5.4001 5.375 5.5151 5.145 5.7451C4.915 5.9751 4.8 6.2601 4.8 6.6001C4.8 6.9401 4.915 7.2251 5.145 7.4551C5.375 7.6851 5.66 7.8001 6 7.8001ZM9.6 12.6001H16.8V10.2001H9.6V12.6001ZM9.6 7.8001H16.8V5.4001H9.6V7.8001Z" fill="black"/>
</svg>
