<svg width="21" height="18" viewBox="0 0 21 18" fill="currentColor" xmlns="http://www.w3.org/2000/svg">
<path d="M2.02545 4H18.2291V2H2.02545V4ZM0 2C0 1.45 0.198326 0.979167 0.594977 0.5875C0.991629 0.195833 1.46845 0 2.02545 0H18.2291C18.7861 0 19.2629 0.195833 19.6596 0.5875C20.0562 0.979167 20.2545 1.45 20.2545 2V8H2.02545V14H6.17764V16H2.02545C1.46845 16 0.991629 15.8042 0.594977 15.4125C0.198326 15.0208 0 14.55 0 14V2ZM13.1148 18L8.81073 13.75L10.2285 12.35L13.1148 15.15L18.8367 9.5L20.2545 10.95L13.1148 18ZM2.02545 2V14V9.5V12.325V2Z" fill="black"/>
</svg>
