<svg width="20" height="11" viewBox="0 0 20 11" fill="none" xmlns="http://www.w3.org/2000/svg">
<path d="M0.089573 7.10975C2.09882 9.3834 5.80146 10.9091 10.0376 10.9091C14.2724 10.9091 17.9758 9.3834 19.9857 7.10975H12.1337C10.9181 8.40349 8.67587 9.27116 6.11227 9.27116C3.54732 9.27116 1.30536 8.40349 0.089573 7.10975Z" fill="#D67923"/>
<path d="M20 3.79928C17.9918 1.52449 14.2888 0 10.052 0C5.81615 0 2.11322 1.5246 0.104736 3.79934H7.95577C9.17209 2.50576 11.4135 1.63678 13.9783 1.63678C16.542 1.63678 18.7837 2.50565 20 3.79928ZM18.5516 5.93213C18.3436 5.93213 18.2235 5.86622 18.2235 5.68513V5.02717C18.2235 4.92698 18.0207 4.83556 17.684 4.83556C17.3482 4.83556 17.1493 4.85011 17.1493 5.02717V5.96124H15.381C15.1994 5.96124 15.1221 5.93992 15.1221 5.80626V5.67227H16.4422C16.6358 5.67227 16.7984 5.68077 16.7984 5.52923V5.37774H15.381C15.1994 5.37774 15.1221 5.35522 15.1221 5.25203V5.14829H16.5451C16.7266 5.14829 16.9271 5.09318 16.9271 5.02717V4.83556H12.8598C12.7063 4.83556 12.7063 4.69132 12.7063 4.69132V4.65932C12.7063 4.57079 12.5169 4.46978 12.2052 4.46978C11.896 4.46978 11.6314 4.54256 11.6314 4.65932V4.69802C11.6314 4.69802 11.628 4.83556 11.4741 4.83556H10.187C10.0339 4.83556 10.0291 4.69802 10.0291 4.69802V4.65932C10.0291 4.57079 9.83991 4.46978 9.52927 4.46978C9.21881 4.46978 8.95425 4.54256 8.95425 4.65932V4.69132C8.95425 4.69132 8.95425 4.83556 8.80127 4.83556H5.00174C4.80737 4.83556 4.70568 4.89803 4.70568 5.02717V6.10335C4.70568 6.19689 4.83331 6.29332 5.14389 6.29332H7.26507C7.42876 6.29332 7.63753 6.19978 7.63753 6.09926V5.96124H6.02844C5.88096 5.96124 5.7798 5.92929 5.7798 5.80064V5.67227H7.09295C7.24909 5.67227 7.45598 5.6751 7.45598 5.52645V5.37774H6.03663C5.88922 5.37774 5.7798 5.36803 5.7798 5.28196V5.19665H8.45633C8.72815 5.19665 8.95425 5.27553 8.95425 5.52923V6.10335C8.95425 6.19188 9.20751 6.29332 9.50504 6.29332C9.80274 6.29332 10.0291 6.1958 10.0291 6.10335V5.52923C10.0291 5.38444 10.1653 5.19665 10.4631 5.19665H11.2007C11.4458 5.19665 11.6314 5.30044 11.6314 5.51691V6.10335C11.6314 6.19188 11.8216 6.29332 12.1326 6.29332C12.4431 6.29332 12.7063 6.22006 12.7063 6.10335V5.51691C12.7063 5.3724 12.9082 5.19665 13.0898 5.19665H13.6465C13.8401 5.19665 14.0478 5.31292 14.0478 5.52923V6.10335C14.0478 6.19188 14.1375 6.29332 14.371 6.29332H19.47C19.7034 6.29332 19.893 6.20823 19.893 6.10335V5.93213H18.5516ZM3.861 4.83556H3.0398C2.83209 4.83556 2.6263 4.90272 2.5355 5.02717C2.44476 5.15107 1.90615 5.88361 1.90615 5.88361L1.26661 5.02717C1.19653 4.93286 0.944029 4.83556 0.651307 4.83556H0C0 4.83556 1.085 6.03979 1.14249 6.10335C1.19993 6.16686 1.48223 6.29332 1.87857 6.29332C2.27492 6.29332 2.53544 6.22731 2.64521 6.10335C2.75416 5.98064 3.35378 5.30202 3.35378 5.30202V6.10335C3.35378 6.19411 3.52151 6.29332 3.86106 6.29332C4.19992 6.29332 4.42736 6.19689 4.42736 6.10335V5.02717C4.42736 4.9285 4.22896 4.83556 3.861 4.83556Z" fill="#008E8D"/>
</svg>
